<?xml version="1.0" standalone="no"?>
<!DOCTYPE svg PUBLIC "-//W3C//DTD SVG 20010904//EN"
 "http://www.w3.org/TR/2001/REC-SVG-20010904/DTD/svg10.dtd">
<svg version="1.0" xmlns="http://www.w3.org/2000/svg"
 width="512.000000pt" height="512.000000pt" viewBox="0 0 512.000000 512.000000"
 preserveAspectRatio="xMidYMid meet">

<g transform="translate(0.000000,512.000000) scale(0.100000,-0.100000)"
fill="#000000" stroke="none">
<path d="M1028 5109 c-119 -28 -229 -120 -287 -239 l-36 -75 -3 -210 -3 -210
-350 -350 -349 -351 0 -385 c0 -418 4 -453 57 -551 35 -64 120 -143 189 -175
166 -76 350 -45 482 81 l58 55 50 -50 c94 -96 240 -144 370 -122 89 16 178 61
238 122 l49 50 61 -56 c70 -65 141 -100 232 -116 128 -22 274 27 368 122 l49
50 61 -56 c178 -165 430 -162 596 6 l55 56 55 -56 c65 -65 141 -104 238 -121
133 -23 283 30 375 132 l40 45 56 -55 c99 -97 237 -143 364 -121 89 15 197 71
248 129 l42 47 52 -51 c53 -54 119 -92 193 -114 l42 -13 0 -1067 c0 -917 -2
-1073 -15 -1117 -20 -66 -80 -134 -147 -164 l-53 -24 -1252 -3 -1253 -2 0 978
c0 1101 4 1038 -75 1117 -73 73 -85 75 -525 75 -440 0 -452 -2 -525 -75 -79
-79 -75 -17 -75 -1112 l0 -973 -37 15 c-57 24 -120 91 -143 153 -19 51 -20 79
-20 998 l0 945 -25 24 c-31 32 -69 32 -101 0 l-24 -25 2 -972 3 -973 36 -75
c59 -122 155 -202 284 -236 74 -20 3696 -20 3770 0 155 41 270 156 311 311 11
40 14 260 14 1127 l0 1076 33 7 c91 20 211 114 260 203 53 98 57 133 57 551
l0 385 -350 351 -350 350 0 185 c0 123 -5 202 -14 235 -34 129 -114 225 -236
284 l-75 36 -973 3 -972 2 -25 -24 c-32 -32 -32 -70 0 -101 l24 -25 945 0
c918 0 947 -1 998 -20 68 -26 133 -90 158 -158 19 -49 20 -78 20 -447 0 -369
-1 -398 -20 -447 -25 -68 -90 -132 -158 -158 -51 -20 -83 -20 -1532 -20 -1449
0 -1481 0 -1532 20 -68 26 -133 90 -158 158 -19 49 -20 78 -20 447 0 452 2
463 83 543 82 80 93 82 533 82 l385 0 24 25 c14 13 25 36 25 50 0 14 -11 37
-25 50 l-24 25 -393 -1 c-216 -1 -410 -5 -430 -10z m3942 -1639 l0 -100 -2410
0 -2410 0 0 100 0 100 2410 0 2410 0 0 -100z m-3750 -1525 l0 -225 -185 0
-185 0 0 188 c1 264 -2 261 223 262 l147 0 0 -225z m475 213 c49 -22 55 -50
55 -253 l0 -185 -185 0 -185 0 0 225 0 225 145 0 c90 0 154 -4 170 -12z m-475
-773 l0 -185 -185 0 -185 0 0 185 0 185 185 0 185 0 0 -185z m530 0 l0 -185
-185 0 -185 0 0 185 0 185 185 0 185 0 0 -185z"/>
<path d="M1457 4756 c-109 -41 -172 -126 -172 -236 0 -118 71 -211 189 -245
64 -19 86 -41 93 -92 4 -32 0 -45 -21 -70 -36 -43 -76 -50 -127 -24 -52 27
-74 26 -104 -4 -53 -52 -13 -121 89 -150 203 -59 381 149 292 341 -29 62 -92
118 -154 135 -62 17 -87 34 -102 69 -34 83 58 168 137 127 16 -9 35 -23 42
-31 21 -25 68 -20 98 10 46 46 16 109 -72 153 -57 28 -138 36 -188 17z"/>
<path d="M1966 4749 l-26 -20 0 -384 0 -384 26 -20 c33 -26 65 -27 95 -2 23
18 24 25 27 175 l3 156 100 0 99 0 0 -154 0 -155 26 -20 c33 -26 65 -27 95 -2
l24 19 0 387 0 387 -24 19 c-30 25 -62 24 -95 -2 l-26 -20 0 -155 0 -154 -99
0 -100 0 -3 156 c-3 150 -4 157 -27 175 -30 25 -62 24 -95 -2z"/>
<path d="M2806 4755 c-59 -21 -108 -65 -138 -125 l-28 -54 0 -230 c0 -221 1
-233 24 -281 67 -145 251 -189 379 -91 19 14 47 50 63 78 l29 53 0 240 0 240
-29 53 c-61 109 -185 158 -300 117z m146 -164 l33 -29 0 -217 0 -217 -33 -29
c-18 -16 -44 -29 -58 -29 -33 0 -81 25 -94 49 -13 26 -13 426 0 451 14 25 58
49 92 50 17 0 41 -12 60 -29z"/>
<path d="M3366 4749 l-26 -20 0 -384 0 -384 26 -20 c33 -26 65 -27 95 -2 23
18 24 25 27 175 l3 156 68 0 c120 0 196 41 247 132 73 134 8 302 -137 353 -27
10 -82 15 -159 15 -104 0 -120 -2 -144 -21z m286 -158 c27 -24 33 -36 33 -71
0 -35 -6 -47 -33 -71 -29 -26 -40 -29 -97 -29 l-65 0 0 100 0 100 65 0 c57 0
68 -3 97 -29z"/>
<path d="M2261 2303 c-24 -9 -63 -35 -86 -58 -76 -76 -75 -65 -75 -700 0 -635
-1 -624 75 -700 79 -79 20 -75 1085 -75 1065 0 1006 -4 1085 75 76 76 75 65
75 700 0 635 1 624 -75 700 -79 79 -19 75 -1089 74 -835 0 -956 -2 -995 -16z
m1212 -376 c118 -57 199 -154 233 -282 37 -137 -7 -293 -113 -398 -209 -210
-551 -149 -682 123 -34 71 -36 81 -36 175 0 94 2 104 36 175 43 89 110 160
192 201 79 41 119 49 215 45 69 -3 94 -9 155 -39z"/>
<path d="M3196 1800 c-100 -39 -176 -149 -176 -255 0 -144 131 -275 275 -275
107 0 217 76 255 178 84 220 -135 437 -354 352z"/>
</g>
</svg>
